<svg width="132" height="29" viewBox="0 0 132 29" fill="none" xmlns="http://www.w3.org/2000/svg">
<path d="M0.712 0.991999H16.216V21.464H14.32L9.208 7.4H4.744V8.936H7.24L2.608 21.464H0.712V0.991999ZM8.584 9.944L11.128 17.096H5.872L8.464 9.944H8.584ZM16.216 28.112H0.712V23H6.184V21.464H4.264L5.368 18.464H11.608L12.664 21.464H10.816V23H16.216V28.112ZM15.6417 28.112V0.991999H30.9297V28.112H15.6417ZM27.3297 23H30.4497V21.464H28.4817L25.6977 16.136C26.8017 15.848 27.6337 15.312 28.1937 14.528C28.7537 13.728 29.0337 12.824 29.0337 11.816C29.0337 10.552 28.6177 9.504 27.7857 8.672C26.9537 7.824 25.5697 7.4 23.6337 7.4H16.8897V8.936H18.8577V21.464H16.8897V23H22.7217V21.464H20.6337V16.472H23.9697L27.3297 23ZM27.1857 11.888C27.1857 12.864 26.8977 13.632 26.3217 14.192C25.7457 14.736 24.7937 15.008 23.4657 15.008H20.6337V8.936H23.4177C24.7457 8.936 25.7057 9.176 26.2977 9.656C26.8897 10.12 27.1857 10.864 27.1857 11.888ZM30.3604 28.112V0.991999H44.5684V28.112H30.3604ZM42.2884 12.272L43.8484 12.152L43.3684 7.4H31.5604L31.1044 12.152L32.6404 12.272L33.1204 8.936H36.5764V21.464H33.8884V23H41.0884V21.464H38.3284V8.936H41.8084L42.2884 12.272ZM44.0011 28.112V0.991999H52.2091V28.112H44.0011ZM45.2491 23H50.9371V21.464H48.9931V8.936H50.9371V7.4H45.2491V8.936H47.2171V21.464H45.2491V23ZM51.6417 28.112V0.991999H64.9137V28.112H51.6417ZM63.6417 18.632C63.6417 17.448 63.3537 16.56 62.7777 15.968C62.2177 15.36 61.5377 14.936 60.7377 14.696C59.9537 14.44 59.2097 14.232 58.5057 14.072C57.6257 13.864 56.8257 13.592 56.1057 13.256C55.3857 12.92 55.0257 12.264 55.0257 11.288C55.0257 10.456 55.3217 9.824 55.9137 9.392C56.5217 8.944 57.3137 8.72 58.2897 8.72C58.7537 8.72 59.2417 8.768 59.7537 8.864C60.2657 8.944 60.7697 9.112 61.2657 9.368L61.5057 11.696L62.9457 11.552L62.8017 8.456C62.3057 8.072 61.6177 7.76 60.7377 7.52C59.8577 7.28 58.9857 7.16 58.1217 7.16C56.7777 7.16 55.6097 7.512 54.6177 8.216C53.6417 8.92 53.1537 10.008 53.1537 11.48C53.1537 12.504 53.3937 13.288 53.8737 13.832C54.3537 14.36 54.9537 14.752 55.6737 15.008C56.3937 15.248 57.1217 15.448 57.8577 15.608C58.8177 15.832 59.7057 16.128 60.5217 16.496C61.3377 16.848 61.7457 17.616 61.7457 18.8C61.7457 19.856 61.3697 20.608 60.6177 21.056C59.8817 21.488 59.0017 21.704 57.9777 21.704C57.4017 21.704 56.8497 21.656 56.3217 21.56C55.7937 21.464 55.2657 21.28 54.7377 21.008L54.8337 19.04L53.3937 18.896L53.0577 21.968C54.2257 22.816 55.8977 23.24 58.0737 23.24C59.6577 23.24 60.9777 22.848 62.0337 22.064C63.1057 21.28 63.6417 20.136 63.6417 18.632ZM64.3448 28.112V0.991999H82.9688V28.112H64.3448ZM76.0088 23H81.6968V21.464H79.7288V8.936H81.6968V7.4H76.0088V8.936H77.9768V14.312H69.3128V8.936H71.2808V7.4H65.5928V8.936H67.5608V21.464H65.5928V23H71.2808V21.464H69.3128V15.8H77.9768V21.464H76.0088V23ZM82.3917 28.112V0.991999H100.368V28.112H82.3917ZM99.1917 15.2C99.1917 12.976 98.4717 11.08 97.0317 9.512C95.5917 7.944 93.7037 7.16 91.3677 7.16C89.0637 7.16 87.1837 7.944 85.7277 9.512C84.2877 11.064 83.5677 12.96 83.5677 15.2C83.5677 17.408 84.2717 19.304 85.6797 20.888C87.0877 22.456 88.9677 23.24 91.3197 23.24C92.8877 23.24 94.2637 22.88 95.4477 22.16C96.6317 21.424 97.5517 20.448 98.2077 19.232C98.8637 18.016 99.1917 16.672 99.1917 15.2ZM97.2957 15.224C97.2957 17.032 96.7757 18.56 95.7357 19.808C94.6957 21.04 93.2557 21.656 91.4157 21.656C89.5277 21.656 88.0637 21.016 87.0237 19.736C85.9837 18.456 85.4637 16.936 85.4637 15.176C85.4637 13.384 85.9837 11.864 87.0237 10.616C88.0637 9.368 89.5117 8.744 91.3677 8.744C93.1757 8.744 94.6157 9.36 95.6877 10.592C96.7597 11.808 97.2957 13.352 97.2957 15.224ZM99.7823 28.112V0.991999H115.766V28.112H99.7823ZM113.822 21.8L114.23 18.8L112.742 18.656L112.286 20.96C111.358 21.424 110.214 21.656 108.854 21.656C106.998 21.656 105.526 21.072 104.438 19.904C103.366 18.72 102.83 17.16 102.83 15.224C102.83 13.336 103.35 11.784 104.39 10.568C105.446 9.352 106.83 8.744 108.542 8.744C109.422 8.744 110.158 8.848 110.75 9.056C111.342 9.248 111.894 9.512 112.406 9.848L112.838 12.128L114.35 11.984L113.918 8.984C113.278 8.44 112.518 8 111.638 7.664C110.774 7.328 109.694 7.16 108.398 7.16C106.878 7.16 105.566 7.536 104.462 8.288C103.358 9.04 102.502 10.04 101.894 11.288C101.286 12.52 100.982 13.856 100.982 15.296C100.982 17.568 101.686 19.464 103.094 20.984C104.502 22.488 106.342 23.24 108.614 23.24C110.838 23.24 112.574 22.76 113.822 21.8ZM115.181 28.112V0.991999H131.069V28.112H115.181ZM125.045 23H130.661V21.464H128.909L124.109 14.888L128.597 8.912H130.373V7.376H124.877V8.912H126.725L122.717 14.312H120.173V8.936H121.997V7.4H116.429V8.936H118.397V21.464H116.429V23H121.973V21.464H120.173V15.824H122.765L126.893 21.464H125.045V23Z" fill="black"/>
</svg>
