<svg width="366" height="222" viewBox="0 0 366 222" fill="none" xmlns="http://www.w3.org/2000/svg">
<rect width="366" height="222" fill="#E5E5E5"/>
<g clip-path="url(#clip0_0_1)">
<rect width="366" height="222" fill="white"/>
<path d="M106.848 82.096V112H110.496V82.096H120.624V78.784H96.624V82.096H106.848ZM126.066 112L128.466 103.456H142.674L145.074 112H148.722L139.602 78.784H131.538L122.418 112H126.066ZM136.818 81.952L141.858 100.144H129.282L134.322 81.952H136.818ZM157.635 112V82.72H158.307L167.955 110.8H172.083L181.731 82.72H182.403V112H186.099V78.784H179.427L170.019 106.864L160.611 78.784H153.939V112H157.635ZM212.54 108.688H197.948V78.784H194.252V112H212.54V108.688ZM237.429 112V108.736H220.917V96.736H234.549V93.52H220.917V82.048H237.429V78.784H217.221V112H237.429ZM256.856 99.28H247.448V112H243.752V78.784H256.04C259.592 78.784 262.248 79.6 264.008 81.232C265.768 82.832 266.648 85.376 266.648 88.864C266.648 94.016 264.616 97.232 260.552 98.512L266.936 112H262.856L256.856 99.28ZM247.448 96.016H256.088C260.6 96.016 262.856 93.68 262.856 89.008C262.856 84.368 260.584 82.048 256.04 82.048H247.448V96.016Z" fill="black"/>
</g>
<defs>
<clipPath id="clip0_0_1">
<rect width="366" height="222" fill="white"/>
</clipPath>
</defs>
</svg>
